<svg width="77" height="100" viewBox="0 0 77 100" fill="none" xmlns="http://www.w3.org/2000/svg">
<path d="M45.0005 48.7808C44.7523 49.033 44.7049 49.4315 44.9056 49.7313L47.6173 53.6431C47.8181 53.9429 47.5954 54.3414 47.2195 54.3195L42.1282 53.9648C42.0516 53.9648 41.9275 53.9173 41.8545 53.8405L38.0223 50.0567C37.7705 49.8081 37.3727 49.8081 37.1245 50.0603C36.8763 50.3126 36.8763 50.7111 37.1281 50.9597L41.6391 55.4382C41.9895 55.7855 42.391 56.0597 42.8399 56.2315L49.4896 58.9771C49.5407 59.0027 49.5882 59.0283 49.6393 59.0758L51.7013 61.1268H52.8473L52.8729 61.1597C50.8327 66.5594 46.5954 69.8534 45.745 70.4749C45.1647 70.8405 44.5516 71.1951 43.902 71.5278C42.964 71.9738 41.9786 72.4235 40.9129 72.7598C40.3837 72.95 39.8508 73.0925 39.307 73.2497C39.0406 73.3302 38.7304 73.385 38.442 73.4545L37.9968 73.5568L37.8836 73.5824L37.7997 73.597L37.5807 73.6336C35.2558 74.0504 32.7485 74.1345 30.1974 73.8201C29.5587 73.7616 28.9236 73.6226 28.2777 73.5203C27.6426 73.3704 26.9966 73.2461 26.3652 73.0523C25.0915 72.7014 23.8287 72.2444 22.5914 71.7106C21.3542 71.1878 20.1352 70.5334 18.9929 69.8278C18.7082 69.645 18.4308 69.4878 18.1352 69.2831L17.2593 68.6725C17.0147 68.5007 16.7228 68.2631 16.4563 68.062C16.1826 67.8536 15.9125 67.6452 15.6534 67.4186C14.5804 66.5631 13.6059 65.5906 12.6716 64.5999C11.7555 63.5872 10.9198 62.5123 10.1643 61.3936C8.6898 59.1379 7.49635 56.736 6.76276 54.261C6.55838 53.6504 6.41604 53.0253 6.2591 52.4111C6.17516 52.104 6.13502 51.8005 6.06932 51.4971C6.01093 51.19 5.93428 50.9085 5.89414 50.5795C5.84669 50.2614 5.79924 49.9433 5.7518 49.6289L5.7153 49.3913L5.708 49.3328C5.708 49.3621 5.708 49.3072 5.708 49.2999L5.69705 49.1866L5.65326 48.7296C5.58026 48.1227 5.56566 47.5231 5.52917 46.9272C5.51092 45.739 5.53647 44.5801 5.66421 43.4724C5.708 42.913 5.81749 42.3793 5.89049 41.8455C5.90508 41.7797 5.91968 41.7139 5.93428 41.6444C5.95253 41.5823 5.96713 41.5201 5.98538 41.4616C6.06932 41.1765 6.14596 40.8913 6.23356 40.6135C6.44524 40.0724 6.61677 39.5203 6.8759 39.0231C7.32846 37.9958 7.93796 37.1075 8.56571 36.3397C8.90878 35.9814 9.2117 35.6012 9.58397 35.3197C9.75915 35.1698 9.93434 35.0236 10.1022 34.8774C10.2884 34.7567 10.4708 34.6361 10.6533 34.5191C10.8322 34.4094 11.0037 34.2705 11.1789 34.19C11.3541 34.106 11.5219 34.0255 11.6898 33.9451C11.8614 33.8647 12.0001 33.7806 12.1825 33.7111C12.376 33.6453 12.5658 33.5832 12.7482 33.521C12.9307 33.4589 13.1059 33.4004 13.2774 33.3419L13.4052 33.298L13.4234 33.2907C13.4234 33.2907 13.3906 33.3017 13.3942 33.3017H13.4015L13.4563 33.287C13.5256 33.2724 13.595 33.2541 13.6643 33.2395C13.938 33.181 14.1935 33.1481 14.4234 33.1298C14.5694 33.1189 14.7045 33.1152 14.8286 33.1115V33.5832H17.1607V33.5978L17.1753 33.7001C17.6388 36.8296 20.1462 39.3266 23.2739 39.7726C23.6535 39.8274 23.9783 39.853 24.2922 39.853C28.2631 39.853 31.493 36.6176 31.493 32.6399C31.493 28.6623 28.2631 25.4268 24.2922 25.4268C23.9783 25.4268 23.6572 25.4524 23.2739 25.5073C20.9126 25.8436 18.8797 27.3242 17.825 29.4739C17.7301 29.6677 17.6425 29.8688 17.5658 30.0698L17.5293 30.1649L17.5074 30.355H14.8249V30.8193C14.6242 30.8303 14.4089 30.8485 14.168 30.8814C13.8504 30.9253 13.5037 30.9911 13.1315 31.0935C13.0366 31.1191 12.9453 31.1483 12.8468 31.1776L12.7738 31.1995L12.6898 31.2288L12.6753 31.2361L12.6461 31.247L12.522 31.2982C12.3541 31.364 12.1825 31.4335 12.0037 31.5066C11.8249 31.5797 11.6424 31.6528 11.4526 31.7296C11.2555 31.8174 11.0365 31.949 10.8212 32.0623C10.6059 32.1829 10.3832 32.3072 10.157 32.4315C9.93069 32.5595 9.7409 32.724 9.52922 32.8739C9.32119 33.0275 9.10951 33.1883 8.89053 33.3492C8.69344 33.5356 8.49636 33.7257 8.29198 33.9158C7.86862 34.2814 7.5292 34.7494 7.15328 35.1991C6.46349 36.1459 5.83209 37.2098 5.39413 38.3797C5.13865 38.9537 4.98536 39.5642 4.79193 40.1748C4.71164 40.4819 4.64594 40.7963 4.57295 41.107C4.562 41.1545 4.55105 41.2021 4.5401 41.2496C4.05834 43.0044 3.81747 44.9274 3.77002 46.9309C3.77732 47.5633 3.76272 48.2104 3.81017 48.8575L3.83571 49.3474L3.84301 49.4717L3.85396 49.618L3.87951 49.8556C3.91236 50.1737 3.94155 50.4917 3.9744 50.8134C4.05105 51.4605 4.16054 52.1625 4.29192 52.8278C4.44156 53.4932 4.57295 54.1696 4.77368 54.8349C5.50362 57.5147 6.67152 60.1872 8.26643 62.644C9.07666 63.865 9.97083 65.0386 10.9526 66.1463C11.9526 67.2358 13.0001 68.296 14.1497 69.2319C14.4271 69.4768 14.7264 69.6999 15.022 69.9229C15.3286 70.1495 15.5913 70.3652 15.9308 70.5992L16.814 71.2024C17.106 71.4035 17.449 71.5973 17.7629 71.7947C19.0439 72.5697 20.3396 73.2424 21.6936 73.8054C22.3579 74.1052 23.0513 74.3355 23.7301 74.5878C24.4236 74.7998 25.1061 75.0192 25.8068 75.1801C26.4966 75.3702 27.201 75.4872 27.8908 75.6261C28.5915 75.7211 29.2813 75.8491 29.9748 75.893C31.358 76.0355 32.7303 76.0392 34.0661 75.9515C34.7339 75.8893 35.3909 75.8418 36.0369 75.7248C36.6865 75.6407 37.3143 75.4981 37.9384 75.3629L38.1719 75.3117L38.3106 75.2788L38.4201 75.2495L38.8581 75.1289C39.1537 75.0411 39.4311 74.979 39.734 74.8766C40.3289 74.6755 40.9238 74.4927 41.464 74.2478C42.5735 73.8091 43.5917 73.2644 44.5516 72.7233C46.4531 71.5973 48.0115 70.2885 49.2268 68.987C50.4093 67.733 51.2451 66.479 51.851 65.3932C51.8729 65.353 51.8984 65.3128 51.9167 65.2725C51.9313 65.2433 51.9459 65.2177 51.9568 65.1885C52.5955 64.0478 53.0736 62.9364 53.4203 61.9128L53.5992 61.3644H53.6466V61.2291C53.6649 61.1816 53.6795 61.1304 53.6941 61.0829C53.7743 60.8087 53.8364 60.5235 53.9057 60.2384C53.9057 60.2237 53.913 60.2091 53.9167 60.1982C53.9897 59.902 54.0481 59.6205 54.0992 59.35C54.1466 59.105 54.1904 58.8564 54.2269 58.6078C54.2634 58.3739 54.289 58.1582 54.3109 57.9571C54.3291 57.8108 54.34 57.6646 54.3546 57.522C54.3619 57.427 54.3692 57.3429 54.3729 57.2588C54.3802 57.193 54.3802 57.1235 54.3838 57.0577L46.0407 48.7735C45.7414 48.4993 45.2925 48.5029 44.9932 48.7771L45.0005 48.7808ZM24.3214 29.5105C26.044 29.5105 27.4419 30.9143 27.4419 32.6363C27.4419 34.3582 26.0404 35.7621 24.3214 35.7621C22.6024 35.7621 21.2009 34.3582 21.2009 32.6363C21.2009 30.9143 22.6024 29.5105 24.3214 29.5105Z" fill="url(#paint0_linear_19_576)"/>
<path d="M42.5154 57.0906C41.9643 56.8676 41.4642 56.5203 41.0372 56.0962L36.5007 51.5921C35.8985 50.9962 35.8948 50.0457 36.4897 49.4425C37.0846 48.8392 38.0335 48.8356 38.6357 49.4096L39.4642 50.2321C39.1357 49.5595 39.3584 48.7332 39.9788 48.3311C40.6759 47.8777 41.6248 48.0496 42.0774 48.7478L45.092 53.2848L46.3402 53.3799L44.1796 50.2139C43.676 49.4644 43.873 48.4663 44.5957 47.9618C45.2417 47.5085 46.0921 47.6072 46.6432 48.1519L54.4425 55.8769C54.4863 53.7199 54.2272 51.4642 53.6432 49.1646L53.1797 47.3403V47.4098C52.3367 44.3461 51.0447 41.3958 49.479 38.727C43.9679 29.3606 35.1284 20.1879 34.7963 9.13611V9.12149C34.7963 7.54579 34.9569 5.93719 35.3036 4.28107C35.3036 4.27375 35.3036 4.2701 35.3036 4.26279H34.6466V23.1784H24.4093C24.3691 23.2187 24.3326 23.2589 24.2925 23.2954C24.2998 23.2954 24.3107 23.2954 24.318 23.2954C29.5663 23.2954 33.8182 27.5582 33.8182 32.8118C33.8182 38.0653 29.5663 42.3281 24.318 42.3281H34.6466V61.1267H50.4425L49.0848 59.7777L42.5117 57.0797L42.5154 57.0906Z" fill="url(#paint1_linear_19_576)"/>
<path d="M40.4602 49.0732C40.1609 49.2743 40.0879 49.6764 40.2886 49.9726L42.3726 53.113L43.9967 53.23L41.358 49.2414C41.1573 48.9416 40.7558 48.8685 40.4602 49.0696V49.0732Z" fill="url(#paint2_linear_19_576)"/>
<path d="M72.5336 24.2131V23.1821H53.4129V4.26645H40.139C37.5623 14.035 43.1099 22.1365 48.9712 30.706C49.5515 31.5541 50.1355 32.4133 50.7158 33.2761C51.0041 33.7477 51.2961 34.2266 51.5917 34.7165C52.2195 35.7475 52.8472 36.815 53.4859 37.9008C54.1173 38.9866 54.7596 40.098 55.2889 41.2313C55.8071 42.3829 56.3071 43.5638 56.7159 44.7373C57.121 45.9145 57.4787 47.0881 57.7159 48.2507C57.9568 49.4096 58.1283 50.5466 58.2122 51.6324C58.2852 52.7182 58.3071 53.7528 58.2706 54.7033C58.1867 56.6081 57.9312 58.1947 57.683 59.2878C57.4422 60.3846 57.2597 61.0025 57.2597 61.0025C57.2597 61.0025 57.3181 60.8526 57.4276 60.5711C57.5334 60.2896 57.694 59.8764 57.8582 59.3354C58.1867 58.2569 58.6174 56.6885 58.8108 54.7435C59.0079 52.8059 58.9896 50.499 58.5298 48.0861C58.3071 46.8833 57.9933 45.6513 57.5736 44.4375C57.3327 43.7283 57.0662 43.03 56.7816 42.3317H72.53V24.2131C70.1796 23.7853 67.8 23.661 65.4532 23.8182C62.1795 23.9754 59.4714 24.5969 57.256 25.6279C53.829 27.1561 51.5516 29.5909 50.1829 32.4645C53.6647 24.4288 63.1393 21.9866 72.53 24.2094L72.5336 24.2131ZM57.5115 37.9191C62.2306 37.0819 65.1175 35.784 67.0299 31.8137C68.4058 29.0023 69.216 25.5731 72.0993 24.2496C71.8292 24.4653 71.5883 24.7103 71.3694 25.0064C67.862 29.1924 69.9679 35.784 62.0116 38.7563C62.0116 38.7563 61.7159 38.8659 61.121 39.0524C59.9349 39.429 59.0699 39.6483 57.4531 39.864C57.3728 39.2425 57.3984 38.5954 57.5079 37.9191H57.5115Z" fill="url(#paint3_linear_19_576)"/>
<path d="M9.3726 92.2495C8.50033 92.2495 7.73025 92.1654 7.06965 91.9972C6.40906 91.829 5.79226 91.617 5.22656 91.3684V88.6521H5.48569C6.05869 89.1383 6.69009 89.5112 7.37988 89.7744C8.06967 90.0376 8.73756 90.1656 9.3872 90.1656C9.55144 90.1656 9.76677 90.1473 10.0332 90.1108C10.2996 90.0742 10.5186 90.0194 10.6792 89.9426C10.8799 89.8549 11.0478 89.7342 11.1865 89.577C11.3252 89.4198 11.3945 89.2151 11.3945 88.9592C11.3945 88.674 11.2814 88.44 11.0588 88.2609C10.8325 88.0817 10.5661 87.9501 10.2558 87.8697C9.86896 87.7673 9.4529 87.6686 9.01129 87.5772C8.56967 87.4858 8.15726 87.3725 7.77404 87.2409C6.89082 86.9301 6.25577 86.5097 5.87256 85.9832C5.48934 85.4568 5.29956 84.7951 5.29956 84.0017C5.29956 82.9306 5.75212 82.0678 6.65724 81.4024C7.56236 80.7407 8.69011 80.408 10.0441 80.408C10.723 80.408 11.3982 80.4774 12.0697 80.6164C12.7413 80.7553 13.3435 80.9417 13.8727 81.1757V83.786H13.6208C13.1975 83.4241 12.6792 83.117 12.0697 82.8648C11.4602 82.6125 10.8325 82.4882 10.1901 82.4882C9.93831 82.4882 9.71567 82.5065 9.51494 82.543C9.31421 82.5796 9.10618 82.6491 8.8872 82.7514C8.70836 82.8319 8.55508 82.9562 8.42369 83.117C8.2923 83.2779 8.2266 83.457 8.2266 83.6581C8.2266 83.9506 8.32879 84.1809 8.53683 84.3527C8.74486 84.5245 9.14267 84.6781 9.73757 84.817C10.1208 84.9048 10.4894 84.9888 10.8434 85.0693C11.1974 85.1497 11.577 85.263 11.9821 85.4056C12.7741 85.6908 13.3617 86.0783 13.7486 86.5609C14.1354 87.0435 14.3252 87.6832 14.3252 88.4766C14.3252 89.6136 13.88 90.5275 12.9894 91.2185C12.0989 91.9095 10.8945 92.2531 9.37625 92.2531L9.3726 92.2495Z" fill="url(#paint4_linear_19_576)"/>
<path d="M26.4826 92.0447V87.7381C26.4826 87.314 26.4753 86.9557 26.4607 86.6632C26.4461 86.3708 26.3986 86.1331 26.322 85.9503C26.2453 85.7676 26.1249 85.6323 25.9643 85.5482C25.8037 85.4641 25.5774 85.4202 25.2855 85.4202C25.0811 85.4202 24.8804 85.4641 24.6796 85.5555C24.4789 85.6433 24.2636 85.7712 24.03 85.9357V92.0447H21.3329V87.7381C21.3329 87.3177 21.3256 86.963 21.3073 86.6669C21.2891 86.3744 21.2416 86.1331 21.165 85.9503C21.0883 85.7676 20.9679 85.6323 20.8073 85.5482C20.6467 85.4641 20.4241 85.4202 20.1358 85.4202C19.9168 85.4202 19.7015 85.4714 19.4934 85.5738C19.2854 85.6762 19.081 85.7968 18.8803 85.9357V92.0447H16.1978V83.4241H18.8803V84.3746C19.3182 84.0017 19.7343 83.7093 20.1212 83.5009C20.508 83.2925 20.946 83.1865 21.4314 83.1865C21.957 83.1865 22.4205 83.3108 22.8183 83.563C23.2161 83.8153 23.519 84.1882 23.7307 84.6854C24.2453 84.2028 24.7344 83.8336 25.1906 83.5777C25.6468 83.3181 26.1103 83.1901 26.5811 83.1901C26.9789 83.1901 27.3366 83.2559 27.6541 83.3802C27.9716 83.5082 28.2381 83.702 28.457 83.9542C28.6979 84.2321 28.8768 84.5611 28.9972 84.9413C29.1176 85.3215 29.176 85.8187 29.176 86.4329V92.0447H26.4789H26.4826Z" fill="url(#paint5_linear_19_576)"/>
<path d="M36.4753 91.1308C36.2928 91.2843 36.1249 91.4232 35.9826 91.5439C35.8366 91.6682 35.6432 91.7888 35.395 91.9131C35.1541 92.0301 34.9205 92.1215 34.6943 92.18C34.468 92.2422 34.1505 92.2714 33.7417 92.2714C32.9789 92.2714 32.3475 92.0155 31.8439 91.5037C31.3402 90.9918 31.0884 90.3484 31.0884 89.5697C31.0884 88.9299 31.2161 88.4144 31.4716 88.0196C31.7271 87.6248 32.0957 87.314 32.5738 87.0837C33.0592 86.8497 33.6395 86.6852 34.3147 86.5938C34.9899 86.5024 35.7162 86.4293 36.4899 86.3781V86.3306C36.4899 85.8553 36.3147 85.5263 35.9644 85.3435C35.614 85.1607 35.0884 85.0693 34.3913 85.0693C34.0738 85.0693 33.7052 85.1278 33.2818 85.2411C32.8585 85.3544 32.4424 85.5043 32.0409 85.6835H31.811V83.6033C32.0774 83.5265 32.5045 83.4351 33.0994 83.3291C33.6906 83.223 34.2892 83.1719 34.8913 83.1719C36.3731 83.1719 37.4534 83.4205 38.1286 83.914C38.8038 84.4076 39.1432 85.1607 39.1432 86.1734V92.0374H36.4753V91.1235V91.1308ZM36.4753 89.7964V88.0013C36.0191 88.0488 35.6541 88.0854 35.3731 88.122C35.0921 88.1549 34.8147 88.2207 34.5446 88.3194C34.3111 88.3998 34.1286 88.5241 33.9972 88.6923C33.8658 88.8568 33.8001 89.0798 33.8001 89.3577C33.8001 89.7635 33.9096 90.0413 34.1249 90.1912C34.3402 90.3411 34.6614 90.4179 35.0848 90.4179C35.3184 90.4179 35.5592 90.363 35.8038 90.257C36.0483 90.151 36.2709 89.9974 36.4717 89.8037L36.4753 89.7964Z" fill="url(#paint6_linear_19_576)"/>
<path d="M47.4681 85.965H47.2455C47.1433 85.9284 46.9937 85.9028 46.8002 85.8845C46.6068 85.8663 46.3915 85.8589 46.1579 85.8589C45.8768 85.8589 45.5812 85.8992 45.271 85.9832C44.9608 86.0637 44.6615 86.1624 44.3695 86.2757V92.0484H41.687V83.4278H44.3695V84.6635C44.4936 84.5501 44.6615 84.4076 44.8805 84.2357C45.0958 84.0639 45.2965 83.9286 45.4754 83.8263C45.6688 83.7093 45.8951 83.6069 46.1542 83.5228C46.4134 83.4387 46.6579 83.3949 46.8842 83.3949C46.9718 83.3949 47.0666 83.3949 47.1761 83.4022C47.282 83.4058 47.3805 83.4168 47.4681 83.4241V85.965Z" fill="url(#paint7_linear_19_576)"/>
<path d="M52.355 92.2129C51.2601 92.2129 50.4644 91.9863 49.9681 91.5366C49.4681 91.0869 49.2199 90.3484 49.2199 89.3248V85.2959H48.1943V83.4241H49.2199V80.96H51.9024V83.4241H54.4864V85.2959H51.9024V88.3523C51.9024 88.6557 51.9024 88.9189 51.9097 89.142C51.9134 89.3686 51.9572 89.5697 52.0338 89.7488C52.1068 89.928 52.2309 90.0706 52.4134 90.1766C52.5959 90.2826 52.8586 90.3338 53.2054 90.3338C53.3477 90.3338 53.5375 90.3045 53.7674 90.2424C54.001 90.1802 54.1616 90.1254 54.2528 90.0742H54.4827V91.9716C54.1908 92.0484 53.8842 92.1069 53.5557 92.1508C53.2273 92.1946 52.8258 92.2166 52.3513 92.2166L52.355 92.2129Z" fill="url(#paint8_linear_19_576)"/>
<path d="M71.8369 95.0682C71.5303 95.145 71.2238 95.1998 70.9135 95.2363C70.6033 95.2729 70.1216 95.2912 69.461 95.2912C68.8588 95.2912 68.3478 95.2144 67.9244 95.0645C67.5047 94.9146 67.1507 94.6989 66.8697 94.4247C66.5887 94.1542 66.377 93.8325 66.2383 93.4559C66.0996 93.083 66.0157 92.6809 65.9974 92.2495C64.3843 92.1764 63.1105 91.617 62.1835 90.5678C61.2565 89.5185 60.793 88.1073 60.793 86.3306C60.793 84.5538 61.282 83.0402 62.2638 81.9727C63.2456 80.9052 64.5959 80.3714 66.3186 80.3714C68.0412 80.3714 69.388 80.9015 70.3734 81.9654C71.3588 83.0256 71.8515 84.4807 71.8515 86.3306C71.8515 87.6759 71.5705 88.8312 71.0121 89.7964C70.4537 90.7615 69.6617 91.4452 68.6398 91.851C68.6507 92.4103 68.7748 92.7942 69.0121 93.0062C69.2493 93.2183 69.669 93.3243 70.2639 93.3243C70.4938 93.3243 70.7384 93.2914 70.9975 93.2219C71.2566 93.1525 71.4391 93.0867 71.5522 93.0245H71.8369V95.0645V95.0682ZM68.1288 89.226C68.3734 88.8933 68.5631 88.5058 68.6945 88.0635C68.8259 87.6211 68.8953 87.0398 68.8953 86.3232C68.8953 85.6067 68.8259 85.062 68.6836 84.583C68.5412 84.1041 68.3551 83.7129 68.1215 83.4058C67.877 83.0951 67.5996 82.8684 67.2894 82.7331C66.9792 82.5979 66.658 82.5284 66.3259 82.5284C65.9719 82.5284 65.6543 82.5906 65.3697 82.7149C65.085 82.8392 64.8076 83.0658 64.5412 83.3876C64.3076 83.6837 64.1142 84.0785 63.9718 84.5684C63.8259 85.0583 63.7529 85.6469 63.7529 86.3269C63.7529 87.0069 63.8222 87.6101 63.9609 88.0744C64.0996 88.5387 64.2894 88.9263 64.5266 89.237C64.7711 89.5551 65.0485 89.7817 65.3624 89.917C65.6726 90.0523 65.9974 90.1217 66.3295 90.1217C66.6617 90.1217 66.9938 90.0486 67.3113 89.9024C67.6288 89.7561 67.9025 89.5295 68.1325 89.2224L68.1288 89.226Z" fill="url(#paint9_linear_19_576)"/>
<defs>
<linearGradient id="paint0_linear_19_576" x1="33.4785" y1="48.4554" x2="55.1258" y2="33.8806" gradientUnits="userSpaceOnUse">
<stop offset="0.29" stop-color="#1572A2"/>
<stop offset="0.81" stop-color="#24588C"/>
</linearGradient>
<linearGradient id="paint1_linear_19_576" x1="29.0225" y1="41.8382" x2="50.6699" y2="27.2597" gradientUnits="userSpaceOnUse">
<stop offset="0.29" stop-color="#1572A2"/>
<stop offset="0.81" stop-color="#0F4674"/>
</linearGradient>
<linearGradient id="paint2_linear_19_576" x1="40.1755" y1="51.0986" x2="43.9967" y2="51.0986" gradientUnits="userSpaceOnUse">
<stop offset="0.29" stop-color="#1572A2"/>
<stop offset="0.81" stop-color="#24588C"/>
</linearGradient>
<linearGradient id="paint3_linear_19_576" x1="53.4969" y1="30.9655" x2="41.9268" y2="34.9821" gradientUnits="userSpaceOnUse">
<stop stop-color="#6CAF0A"/>
<stop offset="1" stop-color="#2D7153"/>
</linearGradient>
<linearGradient id="paint4_linear_19_576" x1="9.77772" y1="95.1705" x2="9.77772" y2="83.0549" gradientUnits="userSpaceOnUse">
<stop stop-color="#0F4674"/>
<stop offset="1" stop-color="#2D7153"/>
</linearGradient>
<linearGradient id="paint5_linear_19_576" x1="22.6905" y1="95.1705" x2="22.6905" y2="83.0549" gradientUnits="userSpaceOnUse">
<stop stop-color="#0F4674"/>
<stop offset="1" stop-color="#2D7153"/>
</linearGradient>
<linearGradient id="paint6_linear_19_576" x1="35.114" y1="95.1705" x2="35.114" y2="83.0549" gradientUnits="userSpaceOnUse">
<stop stop-color="#0F4674"/>
<stop offset="1" stop-color="#2D7153"/>
</linearGradient>
<linearGradient id="paint7_linear_19_576" x1="44.5776" y1="95.1705" x2="44.5776" y2="83.0549" gradientUnits="userSpaceOnUse">
<stop stop-color="#0F4674"/>
<stop offset="1" stop-color="#2D7153"/>
</linearGradient>
<linearGradient id="paint8_linear_19_576" x1="51.3404" y1="95.1705" x2="51.3404" y2="83.0549" gradientUnits="userSpaceOnUse">
<stop stop-color="#0F4674"/>
<stop offset="1" stop-color="#2D7153"/>
</linearGradient>
<linearGradient id="paint9_linear_19_576" x1="66.3222" y1="95.1705" x2="66.3222" y2="83.0549" gradientUnits="userSpaceOnUse">
<stop stop-color="#0F4674"/>
<stop offset="1" stop-color="#2D7153"/>
</linearGradient>
</defs>
</svg>
