<svg width="90" height="20" viewBox="0 0 90 20" fill="none" xmlns="http://www.w3.org/2000/svg">
<path d="M5.56726 15.9226C4.39598 15.9226 3.36192 15.8099 2.47488 15.5844C1.58785 15.359 0.759618 15.0747 0 14.7415V11.1002H0.347954C1.11737 11.752 1.9652 12.2519 2.89145 12.6048C3.81769 12.9576 4.71453 13.1291 5.58687 13.1291C5.8074 13.1291 6.09655 13.1046 6.4543 13.0556C6.81206 13.0066 7.1061 12.9331 7.32174 12.8302C7.59128 12.7126 7.81671 12.5508 8.00294 12.3401C8.18917 12.1294 8.28228 11.8549 8.28228 11.5119C8.28228 11.1296 8.13036 10.816 7.83141 10.5758C7.52757 10.3357 7.16981 10.1593 6.75325 10.0515C6.23377 9.91424 5.67508 9.78192 5.08209 9.6594C4.4891 9.53688 3.93531 9.38496 3.42073 9.20853C2.23475 8.79197 1.38201 8.22838 0.867435 7.52267C0.352855 6.81696 0.0980156 5.92992 0.0980156 4.86646C0.0980156 3.43054 0.705709 2.27396 1.9211 1.38202C3.13649 0.494981 4.65082 0.0490112 6.469 0.0490112C7.38054 0.0490112 8.28718 0.142122 9.18892 0.328351C10.0907 0.51458 10.8993 0.764518 11.6099 1.07817V4.57731H11.2717C10.7033 4.09213 10.0074 3.68047 9.18892 3.34232C8.3705 3.00417 7.52757 2.83754 6.66503 2.83754C6.32688 2.83754 6.02793 2.86205 5.75839 2.91105C5.48885 2.96006 5.20951 3.05318 4.91546 3.1904C4.67532 3.29822 4.46949 3.46484 4.29307 3.68048C4.11664 3.89611 4.02843 4.13624 4.02843 4.40579C4.02843 4.79785 4.16565 5.10659 4.44499 5.33693C4.72433 5.56726 5.25852 5.7731 6.05734 5.95933C6.57192 6.07694 7.0669 6.18966 7.54227 6.29748C8.01764 6.4053 8.52732 6.55722 9.07131 6.74835C10.1348 7.13061 10.9238 7.65009 11.4433 8.29699C11.9628 8.94389 12.2176 9.80152 12.2176 10.865C12.2176 12.3891 11.6197 13.6143 10.4239 14.5406C9.22813 15.4668 7.61088 15.9275 5.57216 15.9275L5.56726 15.9226Z" fill="url(#paint0_linear_19_119)"/>
<path d="M28.5418 15.6481V9.87503C28.5418 9.30654 28.532 8.82626 28.5124 8.4342C28.4928 8.04214 28.4291 7.72359 28.3262 7.47856C28.2232 7.23352 28.0615 7.05219 27.8459 6.93947C27.6302 6.82675 27.3264 6.76794 26.9343 6.76794C26.6599 6.76794 26.3904 6.82675 26.1208 6.94927C25.8513 7.06689 25.5621 7.23841 25.2485 7.45895V15.6481H21.6268V9.87503C21.6268 9.31144 21.617 8.83606 21.5925 8.4391C21.568 8.04704 21.5043 7.72359 21.4014 7.47856C21.2985 7.23352 21.1367 7.05219 20.9211 6.93947C20.7055 6.82675 20.4065 6.76794 20.0194 6.76794C19.7253 6.76794 19.4362 6.83656 19.1568 6.97378C18.8775 7.111 18.603 7.27272 18.3335 7.45895V15.6481H14.7314V4.09213H18.3335V5.36632C18.9216 4.86644 19.4803 4.47438 19.9998 4.19504C20.5192 3.9157 21.1073 3.77357 21.7591 3.77357C22.4648 3.77357 23.0872 3.94021 23.6214 4.27836C24.1556 4.61651 24.5624 5.11639 24.8466 5.78289C25.5376 5.13599 26.1943 4.64101 26.8069 4.29796C27.4195 3.95001 28.0419 3.77848 28.6741 3.77848C29.2083 3.77848 29.6886 3.8667 30.1149 4.03332C30.5413 4.20485 30.8991 4.46459 31.1931 4.80274C31.5165 5.1752 31.7567 5.61626 31.9184 6.12594C32.0801 6.63562 32.1585 7.30212 32.1585 8.12545V15.6481H28.5369H28.5418Z" fill="url(#paint1_linear_19_119)"/>
<path d="M41.9601 14.4229C41.715 14.6288 41.4896 14.815 41.2985 14.9767C41.1024 15.1433 40.8427 15.3051 40.5095 15.4717C40.186 15.6285 39.8724 15.751 39.5685 15.8295C39.2647 15.9128 38.8383 15.952 38.2894 15.952C37.2652 15.952 36.4173 15.6089 35.741 14.9228C35.0647 14.2367 34.7266 13.3742 34.7266 12.3303C34.7266 11.4727 34.8981 10.7817 35.2411 10.2524C35.5842 9.72311 36.0792 9.30654 36.7212 8.99779C37.373 8.68415 38.1522 8.46361 39.0588 8.34109C39.9655 8.21858 40.9407 8.12056 41.9797 8.05195V7.98824C41.9797 7.35114 41.7445 6.91007 41.274 6.66504C40.8035 6.42 40.0978 6.29748 39.1618 6.29748C38.7354 6.29748 38.2404 6.37589 37.6719 6.52781C37.1034 6.67974 36.5447 6.88067 36.0057 7.1208H35.6969V4.33227C36.0547 4.22935 36.6281 4.10683 37.4269 3.96471C38.2208 3.82259 39.0245 3.75398 39.8332 3.75398C41.8229 3.75398 43.2735 4.08723 44.1801 4.74884C45.0868 5.41044 45.5425 6.42 45.5425 7.77751V15.6383H41.9601V14.4131V14.4229ZM41.9601 12.6342V10.2279C41.3475 10.2916 40.8574 10.3406 40.4801 10.3896C40.1027 10.4337 39.7302 10.5219 39.3676 10.6543C39.0539 10.7621 38.8089 10.9287 38.6325 11.1541C38.456 11.3747 38.3678 11.6736 38.3678 12.0461C38.3678 12.5901 38.5148 12.9625 38.804 13.1634C39.0931 13.3644 39.5244 13.4673 40.0929 13.4673C40.4065 13.4673 40.73 13.3938 41.0583 13.2517C41.3867 13.1095 41.6856 12.9037 41.9552 12.644L41.9601 12.6342Z" fill="url(#paint2_linear_19_119)"/>
<path d="M56.7218 7.49816H56.4228C56.2856 7.44915 56.0847 7.41485 55.8249 7.39034C55.5652 7.36584 55.2761 7.35604 54.9624 7.35604C54.5851 7.35604 54.1881 7.40995 53.7715 7.52266C53.355 7.63048 52.9531 7.7628 52.561 7.91473V15.653H48.959V4.09703H52.561V5.75349C52.7277 5.60157 52.9531 5.41044 53.2471 5.1801C53.5363 4.94977 53.8058 4.76843 54.046 4.63121C54.3057 4.47439 54.6096 4.33717 54.9575 4.22445C55.3055 4.11174 55.6338 4.05293 55.9377 4.05293C56.0553 4.05293 56.1827 4.05293 56.3297 4.06273C56.4718 4.06763 56.6042 4.08233 56.7218 4.09213V7.49816Z" fill="url(#paint3_linear_19_119)"/>
<path d="M63.2832 15.8736C61.8129 15.8736 60.7446 15.5697 60.0781 14.9669C59.4067 14.3641 59.0734 13.3742 59.0734 12.002V6.60133H57.6963V4.09214H59.0734V0.789024H62.6755V4.09214H66.1452V6.60133H62.6755V10.6984C62.6755 11.1051 62.6755 11.458 62.6853 11.7569C62.6902 12.0608 62.749 12.3303 62.8519 12.5705C62.9499 12.8106 63.1165 13.0017 63.3616 13.1438C63.6066 13.286 63.9595 13.3546 64.425 13.3546C64.6162 13.3546 64.871 13.3154 65.1798 13.2321C65.4934 13.1487 65.709 13.0752 65.8315 13.0066H66.1403V15.5501C65.7482 15.653 65.3366 15.7314 64.8955 15.7902C64.4544 15.8491 63.9154 15.8785 63.2783 15.8785L63.2832 15.8736Z" fill="url(#paint4_linear_19_119)"/>
<path d="M89.444 19.7011C89.0323 19.804 88.6206 19.8775 88.2041 19.9265C87.7875 19.9755 87.1406 20 86.2536 20C85.4449 20 84.7588 19.8971 84.1903 19.6962C83.6268 19.4952 83.1514 19.2061 82.774 18.8385C82.3967 18.4759 82.1124 18.0446 81.9262 17.5398C81.74 17.0399 81.6272 16.5009 81.6027 15.9226C79.4366 15.8246 77.7262 15.0747 76.4814 13.6682C75.2367 12.2617 74.6143 10.37 74.6143 7.98824C74.6143 5.60647 75.271 3.57756 76.5893 2.14654C77.9076 0.715513 79.7208 0 82.034 0C84.3472 0 86.1555 0.71061 87.4788 2.13673C88.802 3.55795 89.4636 5.50846 89.4636 7.98824C89.4636 9.79172 89.0862 11.3404 88.3364 12.6342C87.5866 13.928 86.5231 14.8444 85.1509 15.3884C85.1656 16.1382 85.3322 16.6528 85.6508 16.937C85.9693 17.2213 86.5329 17.3634 87.3317 17.3634C87.6405 17.3634 87.9688 17.3193 88.3168 17.2262C88.6647 17.1331 88.9098 17.0448 89.0617 16.9615H89.444V19.6962V19.7011ZM84.4648 11.8696C84.7931 11.4237 85.048 10.9042 85.2244 10.3112C85.4008 9.71821 85.4939 8.93899 85.4939 7.97844C85.4939 7.01789 85.4008 6.28768 85.2097 5.64568C85.0186 5.00368 84.7686 4.4793 84.455 4.06763C84.1266 3.65107 83.7542 3.34722 83.3376 3.16589C82.921 2.98457 82.4898 2.89145 82.0438 2.89145C81.5684 2.89145 81.1421 2.97476 80.7598 3.14139C80.3775 3.30801 80.0051 3.61186 79.6473 4.04313C79.3337 4.44009 79.0739 4.96938 78.8828 5.62608C78.6868 6.28278 78.5888 7.0718 78.5888 7.98334C78.5888 8.89488 78.6819 9.70351 78.8681 10.3259C79.0543 10.9483 79.3092 11.4678 79.6277 11.8843C79.9561 12.3107 80.3285 12.6146 80.75 12.7959C81.1666 12.9772 81.6027 13.0703 82.0487 13.0703C82.4947 13.0703 82.9406 12.9723 83.367 12.7763C83.7934 12.5803 84.1609 12.2764 84.4697 11.8647L84.4648 11.8696Z" fill="url(#paint5_linear_19_119)"/>
<defs>
<linearGradient id="paint0_linear_19_119" x1="6.11125" y1="19.8383" x2="6.11125" y2="3.59716" gradientUnits="userSpaceOnUse">
<stop stop-color="#0F4674"/>
<stop offset="1" stop-color="#2D7153"/>
</linearGradient>
<linearGradient id="paint1_linear_19_119" x1="23.4499" y1="19.8383" x2="23.4499" y2="3.59715" gradientUnits="userSpaceOnUse">
<stop stop-color="#0F4674"/>
<stop offset="1" stop-color="#2D7153"/>
</linearGradient>
<linearGradient id="paint2_linear_19_119" x1="40.1321" y1="19.8383" x2="40.1321" y2="3.59716" gradientUnits="userSpaceOnUse">
<stop stop-color="#0F4674"/>
<stop offset="1" stop-color="#2D7153"/>
</linearGradient>
<linearGradient id="paint3_linear_19_119" x1="52.8404" y1="19.8383" x2="52.8404" y2="3.59715" gradientUnits="userSpaceOnUse">
<stop stop-color="#0F4674"/>
<stop offset="1" stop-color="#2D7153"/>
</linearGradient>
<linearGradient id="paint4_linear_19_119" x1="61.9207" y1="19.8383" x2="61.9207" y2="3.59716" gradientUnits="userSpaceOnUse">
<stop stop-color="#0F4674"/>
<stop offset="1" stop-color="#2D7153"/>
</linearGradient>
<linearGradient id="paint5_linear_19_119" x1="82.0389" y1="19.8383" x2="82.0389" y2="3.59716" gradientUnits="userSpaceOnUse">
<stop stop-color="#0F4674"/>
<stop offset="1" stop-color="#2D7153"/>
</linearGradient>
</defs>
</svg>
