<svg width="34" height="35" viewBox="0 0 34 35" fill="none" xmlns="http://www.w3.org/2000/svg">
<path d="M20.1475 21.7169C20.0262 21.8399 20.003 22.0343 20.1011 22.1806L21.4262 24.0888C21.5243 24.2351 21.4155 24.4295 21.2318 24.4188L18.7439 24.2458C18.7064 24.2458 18.6458 24.2226 18.6101 24.1852L16.7375 22.3393C16.6145 22.218 16.4201 22.218 16.2988 22.3411C16.1775 22.4641 16.1775 22.6585 16.3006 22.7798L18.5049 24.9645C18.6761 25.1339 18.8723 25.2677 19.0917 25.3515L22.3411 26.6909C22.366 26.7034 22.3892 26.7158 22.4142 26.739L23.4218 27.7395H23.9818L23.9943 27.7556C22.9974 30.3897 20.9268 31.9966 20.5113 32.2998C20.2277 32.4781 19.9281 32.6511 19.6106 32.8134C19.1523 33.031 18.6708 33.2503 18.15 33.4144C17.8914 33.5072 17.631 33.5767 17.3653 33.6534C17.2351 33.6926 17.0835 33.7194 16.9426 33.7533L16.725 33.8032L16.6698 33.8157L16.6287 33.8228L16.5217 33.8407C15.3857 34.044 14.1605 34.085 12.9138 33.9316C12.6017 33.9031 12.2914 33.8353 11.9758 33.7854C11.6654 33.7123 11.3498 33.6516 11.0412 33.5571C10.4188 33.3859 9.80175 33.163 9.19717 32.9026C8.59259 32.6475 7.99692 32.3283 7.4387 31.9841C7.2996 31.8949 7.16405 31.8182 7.0196 31.7184L6.59157 31.4205C6.47208 31.3367 6.32941 31.2208 6.19922 31.1227C6.06546 31.0211 5.93349 30.9194 5.80686 30.8088C5.28253 30.3915 4.80636 29.9171 4.3498 29.4338C3.90215 28.9398 3.49375 28.4155 3.12458 27.8697C2.40407 26.7693 1.82089 25.5976 1.46242 24.3902C1.36254 24.0924 1.29299 23.7874 1.2163 23.4878C1.17528 23.338 1.15567 23.19 1.12356 23.042C1.09503 22.8922 1.05758 22.7548 1.03796 22.5943C1.01477 22.4392 0.991589 22.284 0.968405 22.1306L0.95057 22.0147L0.947004 21.9862C0.947004 22.0004 0.947004 21.9737 0.947004 21.9701L0.941653 21.9148L0.920252 21.6919C0.884583 21.3959 0.87745 21.1034 0.859615 20.8127C0.850698 20.2331 0.863182 19.6677 0.925602 19.1273C0.947004 18.8545 1.00051 18.5941 1.03618 18.3337C1.04331 18.3016 1.05044 18.2695 1.05758 18.2356C1.06649 18.2053 1.07363 18.175 1.08254 18.1464C1.12356 18.0073 1.16102 17.8682 1.20382 17.7327C1.30726 17.4687 1.39108 17.1994 1.5177 16.9569C1.73885 16.4557 2.03668 16.0224 2.34343 15.6479C2.51108 15.4731 2.6591 15.2876 2.84101 15.1503C2.92662 15.0772 3.01222 15.0058 3.09426 14.9345C3.18521 14.8756 3.27439 14.8168 3.36356 14.7597C3.45095 14.7062 3.53477 14.6384 3.62037 14.5992C3.70598 14.5582 3.78801 14.5189 3.87005 14.4797C3.95387 14.4405 4.02164 14.3994 4.11082 14.3656C4.20534 14.3335 4.29808 14.3031 4.38725 14.2728C4.47642 14.2425 4.56202 14.214 4.64585 14.1854L4.70827 14.164L4.71718 14.1605C4.71718 14.1605 4.70113 14.1658 4.70292 14.1658H4.70648L4.73323 14.1587C4.76712 14.1516 4.801 14.1426 4.83489 14.1355C4.96865 14.107 5.09349 14.0909 5.20584 14.082C5.27718 14.0766 5.34317 14.0749 5.40381 14.0731V14.3031H6.54342V14.3103L6.55055 14.3602C6.77705 15.8868 8.00227 17.1049 9.53067 17.3225C9.71615 17.3492 9.87487 17.3617 10.0282 17.3617C11.9686 17.3617 13.547 15.7834 13.547 13.843C13.547 11.9026 11.9686 10.3243 10.0282 10.3243C9.87487 10.3243 9.71793 10.3368 9.53067 10.3635C8.37679 10.5276 7.38342 11.2499 6.86801 12.2986C6.82164 12.3931 6.77883 12.4912 6.74138 12.5893L6.72355 12.6356L6.71285 12.7284H5.40202V12.9549C5.30393 12.9602 5.19871 12.9691 5.081 12.9852C4.92585 13.0066 4.75642 13.0387 4.57451 13.0886C4.52814 13.1011 4.48355 13.1154 4.4354 13.1296L4.39973 13.1403L4.35871 13.1546L4.35158 13.1582L4.33731 13.1635L4.27668 13.1885C4.19464 13.2206 4.11082 13.2545 4.02343 13.2902C3.93604 13.3258 3.84687 13.3615 3.75413 13.3989C3.65782 13.4417 3.55082 13.5059 3.44559 13.5612C3.34037 13.6201 3.23158 13.6807 3.12101 13.7414C3.01044 13.8038 2.9177 13.884 2.81426 13.9572C2.7126 14.0321 2.60916 14.1105 2.50216 14.189C2.40585 14.28 2.30955 14.3727 2.20967 14.4654C2.0028 14.6438 1.83694 14.8721 1.65324 15.0914C1.31617 15.5533 1.00764 16.0723 0.793628 16.643C0.668788 16.923 0.593884 17.2208 0.499362 17.5187C0.460126 17.6685 0.428024 17.8219 0.392355 17.9735C0.387005 17.9966 0.381655 18.0198 0.376305 18.043C0.140891 18.8991 0.0231846 19.8371 0 20.8145C0.00356687 21.123 -0.00356693 21.4387 0.0196177 21.7543L0.0321019 21.9933L0.0356686 22.054L0.0410191 22.1253L0.0535031 22.2412C0.069554 22.3964 0.0838215 22.5515 0.0998724 22.7085C0.137324 23.0241 0.190828 23.3666 0.255031 23.6911C0.328152 24.0157 0.392356 24.3457 0.490444 24.6702C0.847131 25.9775 1.41783 27.2812 2.19719 28.4797C2.59311 29.0753 3.03005 29.6478 3.5098 30.1882C3.99846 30.7197 4.5103 31.2369 5.07209 31.6934C5.20763 31.8129 5.35387 31.9217 5.49833 32.0305C5.64814 32.1411 5.77654 32.2463 5.9424 32.3604L6.37399 32.6547C6.51667 32.7528 6.68431 32.8473 6.83769 32.9436C7.46367 33.3217 8.09679 33.6498 8.75844 33.9245C9.08303 34.0707 9.42188 34.1831 9.7536 34.3061C10.0925 34.4096 10.426 34.5166 10.7684 34.5951C11.1054 34.6878 11.4496 34.7449 11.7867 34.8126C12.1291 34.859 12.4662 34.9214 12.8051 34.9428C13.481 35.0124 14.1515 35.0142 14.8043 34.9714C15.1307 34.941 15.4517 34.9179 15.7673 34.8608C16.0848 34.8198 16.3915 34.7502 16.6965 34.6842L16.8106 34.6593L16.8784 34.6432L16.9319 34.6289L17.1459 34.5701C17.2904 34.5273 17.4259 34.497 17.574 34.447C17.8647 34.3489 18.1554 34.2598 18.4193 34.1403C18.9615 33.9263 19.459 33.6605 19.9281 33.3966C20.8573 32.8473 21.6188 32.2088 22.2127 31.5739C22.7905 30.9622 23.1989 30.3505 23.495 29.8208C23.5057 29.8012 23.5181 29.7816 23.5271 29.7619C23.5342 29.7477 23.5413 29.7352 23.5467 29.7209C23.8588 29.1645 24.0924 28.6223 24.2618 28.123L24.3492 27.8555H24.3724V27.7895C24.3813 27.7663 24.3885 27.7413 24.3956 27.7181C24.4348 27.5844 24.4651 27.4453 24.499 27.3062C24.499 27.299 24.5026 27.2919 24.5044 27.2865C24.5401 27.1421 24.5686 27.0048 24.5936 26.8728C24.6167 26.7533 24.6381 26.632 24.656 26.5107C24.6738 26.3966 24.6863 26.2914 24.697 26.1933C24.7059 26.122 24.7113 26.0506 24.7184 25.9811C24.722 25.9347 24.7255 25.8937 24.7273 25.8527C24.7309 25.8206 24.7309 25.7867 24.7327 25.7546L20.6557 21.7133C20.5095 21.5796 20.2901 21.5813 20.1439 21.7151L20.1475 21.7169ZM10.0425 12.3164C10.8843 12.3164 11.5674 13.0012 11.5674 13.8412C11.5674 14.6812 10.8825 15.3661 10.0425 15.3661C9.20252 15.3661 8.51768 14.6812 8.51768 13.8412C8.51768 13.0012 9.20252 12.3164 10.0425 12.3164Z" fill="url(#paint0_linear_19_112)"/>
<path d="M18.933 25.7706C18.6637 25.6618 18.4194 25.4924 18.2107 25.2855L15.9939 23.0883C15.6996 22.7976 15.6979 22.3339 15.9886 22.0397C16.2793 21.7454 16.743 21.7436 17.0372 22.0236L17.4421 22.4249C17.2815 22.0967 17.3903 21.6937 17.6935 21.4975C18.0342 21.2764 18.4979 21.3602 18.719 21.7008L20.1921 23.9141L20.802 23.9604L19.7463 22.416C19.5001 22.0504 19.5964 21.5635 19.9496 21.3174C20.2652 21.0962 20.6808 21.1444 20.9501 21.4101L24.7613 25.1785C24.7827 24.1263 24.656 23.0259 24.3707 21.9041L24.1442 21.0142V21.0481C23.7322 19.5536 23.1009 18.1143 22.3358 16.8124C19.6428 12.2433 15.3233 7.76864 15.161 2.37732V2.37018C15.161 1.60152 15.2395 0.816813 15.4089 0.00891721C15.4089 0.00535034 15.4089 0.00356687 15.4089 0H15.0879V9.22749H10.0854C10.0658 9.24711 10.0479 9.26672 10.0283 9.28456C10.0319 9.28456 10.0372 9.28456 10.0408 9.28456C12.6054 9.28456 14.6831 11.364 14.6831 13.9268C14.6831 16.4896 12.6054 18.5691 10.0408 18.5691H15.0879V27.7395H22.8066L22.1432 27.0814L18.9312 25.7653L18.933 25.7706Z" fill="url(#paint1_linear_19_112)"/>
<path d="M17.929 21.8596C17.7828 21.9576 17.7471 22.1538 17.8452 22.2983L18.8635 23.8302L19.6572 23.8873L18.3677 21.9416C18.2696 21.7953 18.0735 21.7597 17.929 21.8578V21.8596Z" fill="url(#paint2_linear_19_112)"/>
<path d="M33.6016 9.7322V9.22927H24.2582V0.00178528H17.7719C16.5128 4.76712 19.2236 8.71921 22.0878 12.8996C22.3713 13.3133 22.6567 13.7324 22.9403 14.1533C23.0812 14.3834 23.2238 14.617 23.3683 14.856C23.675 15.3589 23.9818 15.8797 24.2939 16.4094C24.6024 16.9391 24.9163 17.4812 25.1749 18.0341C25.4282 18.5959 25.6725 19.1719 25.8722 19.7444C26.0702 20.3187 26.245 20.8911 26.3609 21.4583C26.4786 22.0236 26.5624 22.5783 26.6034 23.108C26.6391 23.6376 26.6498 24.1424 26.632 24.606C26.591 25.5352 26.4661 26.3092 26.3448 26.8425C26.2271 27.3775 26.138 27.6789 26.138 27.6789C26.138 27.6789 26.1665 27.6058 26.22 27.4685C26.2717 27.3311 26.3502 27.1296 26.4304 26.8657C26.5909 26.3395 26.8014 25.5744 26.8959 24.6257C26.9922 23.6804 26.9833 22.5551 26.7586 21.378C26.6498 20.7913 26.4964 20.1903 26.2913 19.5982C26.1736 19.2522 26.0434 18.9115 25.9043 18.5709H33.5998V9.7322C32.4513 9.52354 31.2885 9.4629 30.1418 9.53959C28.542 9.61628 27.2187 9.91946 26.1362 10.4224C24.4615 11.1679 23.3487 12.3556 22.6799 13.7574C24.3813 9.83743 29.0111 8.64609 33.5998 9.73042L33.6016 9.7322ZM26.261 16.4183C28.567 16.0099 29.9777 15.3768 30.9122 13.44C31.5846 12.0685 31.9805 10.3956 33.3894 9.75004C33.2574 9.85526 33.1397 9.97475 33.0327 10.1192C31.3188 12.1612 32.3479 15.3768 28.46 16.8267C28.46 16.8267 28.3155 16.8802 28.0248 16.9712C27.4452 17.1549 27.0225 17.2619 26.2325 17.3671C26.1932 17.0639 26.2057 16.7482 26.2592 16.4183H26.261Z" fill="url(#paint3_linear_19_112)"/>
<defs>
<linearGradient id="paint0_linear_19_112" x1="14.5172" y1="21.5582" x2="25.084" y2="14.4316" gradientUnits="userSpaceOnUse">
<stop offset="0.29" stop-color="#1572A2"/>
<stop offset="0.81" stop-color="#24588C"/>
</linearGradient>
<linearGradient id="paint1_linear_19_112" x1="12.3397" y1="18.3301" x2="22.9065" y2="11.2017" gradientUnits="userSpaceOnUse">
<stop offset="0.29" stop-color="#1572A2"/>
<stop offset="0.81" stop-color="#0F4674"/>
</linearGradient>
<linearGradient id="paint2_linear_19_112" x1="17.7899" y1="22.8476" x2="19.6572" y2="22.8476" gradientUnits="userSpaceOnUse">
<stop offset="0.29" stop-color="#1572A2"/>
<stop offset="0.81" stop-color="#24588C"/>
</linearGradient>
<linearGradient id="paint3_linear_19_112" x1="24.2992" y1="13.0262" x2="18.6475" y2="14.9915" gradientUnits="userSpaceOnUse">
<stop stop-color="#6CAF0A"/>
<stop offset="1" stop-color="#2D7153"/>
</linearGradient>
</defs>
</svg>
